<svg width="125" height="37" viewBox="0 0 125 37" fill="none" xmlns="http://www.w3.org/2000/svg">
<g clip-path="url(#clip0_740_908)">
<mask id="mask0_740_908" style="mask-type:luminance" maskUnits="userSpaceOnUse" x="0" y="0" width="125" height="37">
<path d="M125 0H0V37H125V0Z" fill="white"/>
</mask>
<g mask="url(#mask0_740_908)">
<path d="M121.011 35.6793H125V37.0007H119.282V28.2793H121.011V35.6793ZM117.021 33.1686H113.697V35.6793H117.553V37.0007H111.835V28.2793H117.553V29.6007H113.697V31.8472H117.021V33.1686ZM105.585 31.8472H106.782C107.314 31.8472 107.58 31.715 107.846 31.5829C108.112 31.4507 108.245 31.0543 108.245 30.79C108.245 30.3936 108.112 30.1293 107.846 29.865C107.58 29.7329 107.181 29.6007 106.649 29.6007H105.585V31.8472ZM105.585 33.1686V35.6793H107.181C107.713 35.6793 107.979 35.5472 108.245 35.415C108.511 35.1507 108.644 34.8864 108.644 34.49C108.644 34.0936 108.511 33.6972 108.245 33.565C107.979 33.3007 107.58 33.1686 107.181 33.1686H105.585ZM103.856 37.0007V28.2793H106.782C107.846 28.2793 108.644 28.5436 109.176 28.94C109.707 29.3364 110.106 29.9972 110.106 30.79C110.106 31.1864 109.973 31.5829 109.84 31.8472C109.574 32.1114 109.309 32.3757 108.91 32.5079C109.441 32.64 109.84 32.9043 110.106 33.1686C110.372 33.565 110.505 33.9614 110.505 34.49C110.505 35.2829 110.239 35.9436 109.707 36.34C109.176 36.7364 108.378 37.0007 107.314 37.0007H103.856ZM97.8723 33.6972H99.867L98.9362 30.6579L97.8723 33.6972ZM100.266 35.1507H97.3404L96.8085 37.0007H94.9468L97.8723 28.2793H99.734L102.66 37.0007H100.798L100.266 35.1507ZM89.8936 33.3007H89.2287V37.0007H87.5V28.2793H89.2287V31.8472H89.7606L92.1543 28.2793H94.4149L91.3564 32.3757L94.6808 37.1329H92.4202L89.8936 33.3007Z" fill="#231F20"/>
<path d="M101.33 25.8999H96.8086V26.957H101.33V25.8999Z" fill="#231F20"/>
<mask id="mask1_740_908" style="mask-type:luminance" maskUnits="userSpaceOnUse" x="-1" y="0" width="83" height="37">
<path d="M0.133312 36.7354H11.9684C12.6333 36.7354 13.1652 36.4711 13.6971 36.0747C14.229 35.6783 14.4949 35.1497 14.4949 34.6211V24.1818V16.6497V7.53184H19.8142C21.277 7.53184 22.4738 8.06041 23.5376 8.85327C24.4685 9.77827 25.0004 10.7033 25.1334 12.0247C25.1334 13.3461 24.4685 14.4033 23.5376 15.3283C22.4738 16.2533 21.144 16.6497 19.8142 16.6497H18.7503V24.1818H19.8142C21.277 24.1818 22.4738 24.7104 23.5376 25.5033C25.0004 26.6925 25.7981 28.5425 26.9949 29.9961C29.2556 32.639 32.1813 34.6211 35.5057 35.6783C37.3674 36.339 39.229 36.6033 41.2237 36.7354C41.4896 36.7354 42.4206 36.7354 42.4206 36.7354H47.8726C48.5375 36.7354 49.0694 36.4711 49.6013 36.0747C50.1332 35.6783 50.3993 35.1497 50.3993 34.6211V24.1818V16.6497V7.53184H55.7185C57.1813 7.53184 58.3781 8.06041 59.4419 8.85327C60.3727 9.77827 60.9047 10.7033 61.0376 12.0247C61.0376 13.3461 60.5057 14.4033 59.4419 15.3283C58.3781 16.2533 57.0483 16.6497 55.7185 16.6497H54.6545V24.1818H55.8513C57.3141 24.1818 58.5109 24.7104 59.5747 25.5033C61.0375 26.6925 61.8355 28.5425 63.0323 29.9961C65.293 32.639 68.2185 34.6211 71.543 35.6783C73.4047 36.339 75.2662 36.6033 77.2609 36.7354C77.5269 36.7354 77.7928 36.7354 78.0588 36.7354H81.3832V28.2783H78.0588C75.6652 28.2783 73.5375 27.8818 71.9418 26.6925C69.8141 25.1068 67.0217 21.539 67.0217 21.539C66.6227 21.1425 66.2237 20.7461 65.8247 20.3497C68.3513 18.1033 69.5483 15.3283 69.6813 12.0247C69.6813 10.439 69.2822 8.85327 68.4843 7.53184C67.8194 6.07827 66.7557 4.75684 65.5589 3.69969C64.3621 2.64255 62.7662 1.71755 61.1705 1.05684C59.4418 0.396122 57.5802 0.131836 55.7185 0.131836H46.0109C44.8141 0.131836 43.7504 0.528265 42.8196 1.18898C42.0217 1.84969 41.6226 2.77469 41.6226 3.83184V28.2783H40.8249C38.4313 28.2783 37.3674 27.8818 35.7717 26.6925C33.644 25.1068 30.8515 21.539 30.8515 21.539C30.4525 21.1425 30.0535 20.7461 29.6545 20.3497C32.1811 18.1033 33.3781 15.3283 33.511 12.0247C33.511 10.439 33.112 8.85327 32.3141 7.53184C31.6492 6.07827 30.5854 4.75684 29.3886 3.69969C28.0588 2.64255 26.596 1.71755 25.0003 1.05684C23.2715 0.396122 21.41 0.131836 19.5483 0.131836H9.84076C8.64395 0.131836 7.58012 0.528265 6.64927 1.18898C5.8514 1.84969 5.45246 2.77469 5.45246 3.83184V28.2783H-0.265625V36.7354H0.133312Z" fill="white"/>
</mask>
<g mask="url(#mask1_740_908)">
<path d="M81.5158 0H0.132812V36.7357H81.5158V0Z" fill="url(#paint0_linear_740_908)"/>
</g>
<path opacity="0.1" d="M41.8891 28.2774H41.0914C38.6977 28.2774 37.5008 27.881 36.038 26.6917C33.9104 25.106 31.1179 21.5381 31.1179 21.5381C30.719 21.1417 30.3199 20.7453 29.921 20.3488C30.054 20.2167 25.1338 24.3131 19.6816 24.181C21.1444 24.181 22.3413 24.7095 23.5382 25.5024C25.0009 26.6917 25.7987 28.5417 26.9955 29.9953C29.2561 32.6381 32.3146 34.6203 35.6391 35.6774C37.5008 36.3381 39.4955 36.6024 41.3572 36.7345C41.6231 36.7345 42.554 36.7345 42.554 36.7345H44.2827H44.6816H46.5433H48.0061C48.671 36.7345 49.2031 36.4703 49.735 36.0738C50.1339 35.8095 50.3999 35.4131 50.3999 35.0167L41.8891 28.2774Z" fill="#808184"/>
<path opacity="0.1" d="M55.8516 24.1827C57.3143 24.1827 58.5111 24.7113 59.575 25.5042C61.0377 26.6934 61.8356 28.5434 63.0324 29.997C65.2931 32.6399 68.3516 34.622 71.676 35.6792C73.5377 36.3399 75.5324 36.6042 77.3941 36.7363C77.6601 36.7363 77.926 36.7363 78.192 36.7363H81.6494V28.2792H78.192C75.7984 28.2792 73.5377 27.8827 72.075 26.6934C69.9473 25.1077 67.1548 21.5399 67.1548 21.5399C66.7558 21.1434 66.3569 20.747 65.9579 20.3506C65.9579 20.3506 60.6388 24.3149 55.8516 24.1827Z" fill="#6D6E70"/>
</g>
</g>
<defs>
<linearGradient id="paint0_linear_740_908" x1="0.137848" y1="18.3659" x2="81.5192" y2="18.3659" gradientUnits="userSpaceOnUse">
<stop stop-color="#F58A1F"/>
<stop offset="0.5" stop-color="#F06022"/>
<stop offset="1" stop-color="#EC1C24"/>
</linearGradient>
<clipPath id="clip0_740_908">
<rect width="125" height="37" fill="white"/>
</clipPath>
</defs>
</svg>
