<svg id="Layer_2" data-name="Layer 2" xmlns="http://www.w3.org/2000/svg" viewBox="0 0 835.22 145.03"><defs><style>.cls-2{stroke-width:0;fill:#e6342b}</style></defs><g id="Layer_1-2" data-name="Layer 1"><path class="cls-2" d="M72.25 53.8l8.4-52.78s-.03-.01-.06-.01c-3.82-.66-7.76-1-11.76-1s-7.94.35-11.77 1h-.01l8.32 52.79s.66 3.5.66 12.91v65.49h5.54V66.71c0-9.41.67-12.91.67-12.91"/><path class="cls-2" d="M60.98 47.6l-1.23-3.01-16.3-39.76h-.01c-.03.01-.05.02-.07.03-.17.07-.36.14-.54.22a68.847 68.847 0 00-19.49 12.1c.11.14 27.27 31.31 27.27 31.31 7.9 8.2 7.45 21.39 7.45 21.39v62.31h5.54V69.43c0-16.67-2.61-21.83-2.61-21.83"/><path class="cls-2" d="M50.49 54.38c-1.24-1.46-2.23-2.11-2.23-2.11l-33.2-23.78-1.31-.94s-.02.03-.03.04A68.885 68.885 0 003.04 48.51c.6.19 42.64 13.33 42.81 13.39.47.18 4.2 1.29 4.2 7.75v62.54h5.53V70.06c0-8.23-2.94-13.17-5.1-15.69"/><path class="cls-2" d="M41.55 64.24C40.32 64.16 2.86 62.6.28 62.51h.01C.1 64.6 0 66.71 0 68.83c0 .52 0 1.03.02 1.54.12 5.37.85 10.58 2.13 15.58v.04c.07-.02 32.5-10.18 34.04-10.68 1.19-.38 2.08-.66 2.81-.75.78-.11 1.39 0 1.99.42 1.17.84 1.07 2.79 1.07 2.79v54.43h5.53V71.66s.28-7.02-6.04-7.42M87.06 48.5l27.27-31.31a68.932 68.932 0 00-19.49-12.1c-.18-.07-.36-.15-.54-.22a.239.239 0 00-.07-.03h-.01L76.7 47.6s-2.61 5.17-2.61 21.83v62.76h5.54V69.88s-.46-13.19 7.44-21.39"/><path class="cls-2" d="M91.81 61.9c.17-.06 42.21-13.2 42.81-13.39a68.61 68.61 0 00-9.39-19.14c-.42-.6-.85-1.2-1.29-1.78-.01-.01-.02-.03-.03-.04l-34.5 24.71s-.99.65-2.24 2.11c-2.16 2.52-5.1 7.46-5.1 15.69v62.13h5.53V69.65c0-6.46 3.73-7.57 4.2-7.75"/><path class="cls-2" d="M137.38 62.52c-2.57.09-40.03 1.65-41.26 1.73-6.32.4-6.03 7.42-6.03 7.42v60.54h5.52V77.78s-.1-1.96 1.07-2.79c.6-.42 1.2-.53 1.99-.43.74.09 1.64.37 2.82.76 1.54.51 33.57 10.61 34.02 10.74 0-.03.01-.07.02-.1 1.28-5 2.02-10.2 2.12-15.57.01-.51.03-1.02.03-1.54 0-2.12-.1-4.23-.29-6.31"/><path d="M187.7 45.11h-22.61V28.74h65.1v16.37h-22.61v74.71H187.7V45.11zm78.09 45.35c-12.86-.91-19.23 2.08-19.23 8.45 0 4.16 2.86 7.14 7.92 7.14s9.1-2.21 11.3-5.2V90.46zm18.45-21.05v29.36c0 4.16 1.56 5.98 5.07 5.98h2.08v13.51c-3.12 1.95-6.5 2.47-9.75 2.47-7.02 0-11.04-3.38-13.25-7.92h-.52c-2.73 3.64-8.19 8.18-18.71 8.18-14.29 0-21.7-9.75-21.7-20.27 0-16.89 15.2-24.69 38.33-23.52v-5.72c0-8.19-4.54-10.66-10.52-10.66-7.02 0-10.79 4.03-12.6 8.32l-13.9-10.26c2.86-4.03 10.13-13.77 26.38-13.77 18.71 0 29.1 6.5 29.1 24.3m58.34-4.55c-2.6-.52-5.85-.65-8.45-.65-6.11 0-12.86 2.34-17.15 5.85v49.76H297.5V46.41h15.33l4.03 10.78h.52c2.99-7.15 9.36-12.34 18.97-12.34 2.08 0 4.55.26 6.24.65v19.36zm35.6 41.06c10.01 0 13.12-7.28 13.12-22.22s-3.77-23.26-13.9-23.26c-8.96 0-12.86 7.28-12.86 22.22s3.77 23.26 13.64 23.26m-33.78-22.48c0-22.61 9.48-38.33 33.78-38.33s33.26 15.07 33.26 37.81-9.61 38.33-33.91 38.33-33.13-15.07-33.13-37.81M458.17 45.5v25.73h6.5c13.25 0 16.11-5.72 16.11-12.73 0-8.97-4.42-12.99-14.55-12.99h-8.06zm43.14 10.27c0 17.02-8.97 31.7-35.6 31.7h-7.54v32.35h-19.88V28.74h31.18c18.45 0 31.83 6.89 31.83 27.03m4.3-9.36h19.62v47.43c0 8.06 3.9 12.21 10.53 12.21 8.58 0 11.69-6.5 12.73-8.83v-50.8h19.62v73.41h-16.63l-2.73-6.76h-.52c-4.29 5.2-10.13 8.19-19.36 8.19-15.72 0-23.26-8.19-23.26-25.6V46.42zm151.24-1.69c14.42 0 22.61 7.67 22.61 24.43v50.67h-19.62V72.65c0-8.58-4.42-11.43-9.48-11.43s-10.01 3.25-12.21 8.45v50.15h-19.62V74.08c0-8.58-3.64-12.86-10.39-12.86-4.81 0-9.48 3.9-11.3 8.71v49.89h-19.62V46.41h16.11l3.25 6.89h.52c4.55-5.85 12.08-8.58 19.36-8.58 11.17 0 15.72 4.68 18.32 9.88h.52c3.77-5.07 11.17-9.88 21.57-9.88m60.15 59.64c9.48 0 15.33-5.46 15.33-22.61 0-14.55-6.11-20.79-13.77-20.79-4.42 0-8.45 2.08-10.79 5.59v35.6c2.86 1.69 7.27 2.21 9.22 2.21m2.34 15.85c-4.29 0-7.79-.39-11.3-1.17v25.99h-19.49V46.41h14.42l4.16 6.24h.52c2.73-3.25 8.32-7.54 17.54-7.54 16.11 0 27.16 12.08 27.16 34.95 0 27.03-15.33 40.15-33 40.15m40.04-52.36c0-11.95 10.27-22.74 27.29-22.74 13.25 0 21.7 4.68 26.51 10.26l-12.6 12.34c-2.6-2.99-7.67-6.89-14.42-6.89-4.42 0-7.28 2.34-7.28 5.72 0 11.05 34.56 7.15 34.56 31.7 0 9.74-7.67 22.87-28.98 22.87-16.11 0-25.86-6.76-29.88-11.05l11.69-13.51c3.25 3.77 10.39 9.1 19.23 9.1 6.11 0 8.44-2.86 8.44-6.24 0-10.65-34.56-7.15-34.56-31.57m65.6 43.29v-2.85h1.27c.83 0 1.36.4 1.36 1.41s-.39 1.45-1.49 1.45h-1.14zm1.05 1.49l1.8 3.55h2.06l-2.24-4.04c.83-.22 1.71-.88 1.71-2.63 0-1.93-1.27-2.76-3.16-2.76h-2.94v9.44h1.71v-3.55h1.05zm0 8.16c5.31 0 9.17-3.86 9.17-9.17s-3.69-9-9.13-9-9.17 3.86-9.17 9.17 3.69 9 9.13 9m-.04-1.67c-4.17 0-7.24-3.29-7.24-7.46s2.98-7.29 7.29-7.29 7.33 3.16 7.33 7.37-3.03 7.37-7.37 7.37" fill="#434241" stroke-width="0"/></g></svg>